# File created by Blade
# Date/Time:  Wed Jan 21 17:47:32 2015
# Frame Rate: 120.000 fps
#------------------------------------------------------
:FULLY-SPECIFIED
:DEGREES
1423
root 19.886398 28.583093 -19.910605 -75.948099 73.349644 -131.697630
Spine 63.117080 -31.628794 -22.652613
Head -25.180084 -10.556434 45.226510
LeftShoulder 36.003800 -48.234233 10.591272
LeftArm 22.691448 -3.952358 -23.205979
LeftForeArm -25.000905 -0.000000 -4.300228
LeftHand -10.153090 0.000000 10.461770
LeftHandThumb1 -26.253704 0.000000 33.147579
RightShoulder -15.188741 -7.025186 -1.055943
RightArm -37.480797 38.706311 15.685578
RightForeArm -0.567112 0.000000 7.218115
RightHand -16.618276 0.000000 -12.992538
RightHandThumb1 -24.326973 -0.000000 -32.862282
LeftUpLeg -21.693797 40.208520 -6.283209
LeftLeg -1.002707 -0.000000 0.000000
LeftFoot -46.461362 16.132436 -28.113387
LeftToeBase 28.223295 -0.000000 -0.000000
RightUpLeg -108.720364 12.848149 0.337536
RightLeg 52.282157 -0.000000 -0.000000
RightFoot -17.622728 -13.693297 13.775437
RightToeBase 27.800031 -0.000000 -0.000000
1424
root 19.885915 28.585180 -19.917486 -74.522782 73.281277 -130.509777
Spine 63.259192 -31.554406 -23.021342
Head -25.048998 -11.034172 45.671224
LeftShoulder 35.866670 -48.001023 10.661154
LeftArm 22.262153 -3.820913 -22.706848
LeftForeArm -25.190048 -0.000000 -4.314076
LeftHand -10.492627 -0.000000 10.442839
LeftHandThumb1 -26.253704 0.000000 33.147579
RightShoulder -15.242474 -7.074480 -1.012086
RightArm -38.269315 38.655822 15.205484
RightForeArm 0.151610 -0.000000 7.248136
RightHand -16.947796 -0.000000 -13.478129
RightHandThumb1 -24.326973 -0.000000 -32.862282
LeftUpLeg -21.975561 40.340028 -6.439133
LeftLeg -1.025577 -0.000000 0.000000
LeftFoot -46.554026 16.224148 -28.119321
LeftToeBase 28.179476 -0.000000 -0.000000
RightUpLeg -108.891784 13.140161 0.468441
RightLeg 52.114657 -0.000000 -0.000000
RightFoot -17.408733 -13.440143 13.859275
RightToeBase 27.253531 -0.000000 -0.000000
1425
root 19.888551 28.587689 -19.924585 -73.111812 73.197221 -129.333268
Spine 63.404038 -31.459994 -23.377911
Head -25.024476 -11.467520 46.185915
LeftShoulder 35.738118 -47.847845 10.683432
LeftArm 21.831115 -3.649053 -22.203023
LeftForeArm -25.330462 -0.000000 -4.404026
LeftHand -10.476179 -0.000000 10.318319
LeftHandThumb1 -26.253704 0.000000 33.147579
RightShoulder -15.334686 -7.155379 -0.909288
RightArm -38.898491 38.609113 14.797422
RightForeArm 0.819145 -0.000000 7.252486
RightHand -17.231151 0.000000 -14.034673
RightHandThumb1 -24.326973 -0.000000 -32.862282
LeftUpLeg -22.259480 40.493871 -6.604228
LeftLeg -1.059724 -0.000000 0.000000
LeftFoot -46.645334 16.331498 -28.128438
LeftToeBase 28.137849 -0.000000 -0.000000
RightUpLeg -109.055446 13.433597 0.572365
RightLeg 51.959443 -0.000000 -0.000000
RightFoot -17.337682 -13.305397 13.711489
RightToeBase 27.687436 -0.000000 -0.000000
1426
root 19.889104 28.591724 -19.932376 -71.798731 73.105708 -128.264728
Spine 63.542519 -31.376057 -23.741900
Head -24.891402 -11.959456 46.712303
LeftShoulder 35.521002 -47.613083 10.869819
LeftArm 21.328416 -3.345743 -21.617589
LeftForeArm -25.326807 -0.000000 -4.263122
LeftHand -10.548040 0.000000 10.280900
LeftHandThumb1 -26.253704 0.000000 33.147579
RightShoulder -15.368454 -7.182289 -0.811512
RightArm -39.648609 38.614474 14.241447
RightForeArm 1.285777 0.000000 7.289129
RightHand -17.475765 -0.000000 -14.613794
RightHandThumb1 -24.326973 -0.000000 -32.862282
LeftUpLeg -22.558945 40.601217 -6.771567
LeftLeg -1.095108 -0.000000 0.000000
LeftFoot -46.752035 16.479818 -28.148340
LeftToeBase 28.144550 -0.000000 -0.000000
RightUpLeg -109.223719 13.697234 0.687382
RightLeg 51.800976 -0.000000 -0.000000
RightFoot -17.182980 -13.072311 13.830827
RightToeBase 27.538327 -0.000000 -0.000000
